HIERARCHY
ROOT hip
{
  OFFSET 0 0 0
  CHANNELS 6 Xposition Yposition Zposition Zrotation Yrotation Xrotation
  JOINT abdomen
  {
    OFFSET 0 20.6881 -0.73152
    CHANNELS 3 Zrotation Xrotation Yrotation
    JOINT chest
    {
      OFFSET 0 11.7043 -0.48768
      CHANNELS 3 Zrotation Xrotation Yrotation
      JOINT neck
      {
        OFFSET 0 22.1894 -2.19456
        CHANNELS 3 Zrotation Xrotation Yrotation
        JOINT head
        {
          OFFSET -0.24384 7.07133 1.2192
          CHANNELS 3 Zrotation Xrotation Yrotation
          JOINT leftEye
          {
            OFFSET 4.14528 8.04674 8.04672
            CHANNELS 3 Zrotation Xrotation Yrotation
            End Site
            {
              OFFSET 1 0 0
            }
          }
          JOINT rightEye
          {
            OFFSET -3.6576 8.04674 8.04672
            CHANNELS 3 Zrotation Xrotation Yrotation
            End Site
            {
              OFFSET 1 0 0
            }
          }
        }
      }
      JOINT rCollar
      {
        OFFSET -2.68224 19.2634 -4.8768
        CHANNELS 3 Zrotation Xrotation Yrotation
        JOINT rShldr
        {
          OFFSET -8.77824 -1.95073 1.46304
          CHANNELS 3 Zrotation Xrotation Yrotation
          JOINT rForeArm
          {
            OFFSET -28.1742 -1.7115 0.48768
            CHANNELS 3 Zrotation Xrotation Yrotation
            JOINT rHand
            {
              OFFSET -22.5879 0.773209 7.07136
              CHANNELS 3 Zrotation Xrotation Yrotation
              JOINT rThumb1
              {
                OFFSET -1.2192 -0.487915 3.41376
                CHANNELS 3 Zrotation Xrotation Yrotation
                JOINT rThumb2
                {
                  OFFSET -3.37035 -0.52449 3.41376
                  CHANNELS 3 Zrotation Xrotation Yrotation
                  End Site
                  {
                    OFFSET -1.78271 -1.18214 1.43049
                  }
                }
              }
              JOINT rIndex1
              {
                OFFSET -7.75947 0.938293 5.60832
                CHANNELS 3 Zrotation Xrotation Yrotation
                JOINT rIndex2
                {
                  OFFSET -2.54057 -0.884171 1.56538
                  CHANNELS 3 Zrotation Xrotation Yrotation
                  End Site
                  {
                    OFFSET -1.62519 -0.234802 1.16502
                  }
                }
              }
              JOINT rMid1
              {
                OFFSET -8.24714 1.18213 3.41376
                CHANNELS 3 Zrotation Xrotation Yrotation
                JOINT rMid2
                {
                  OFFSET -3.10165 -0.590103 1.0647
                  CHANNELS 3 Zrotation Xrotation Yrotation
                  End Site
                  {
                    OFFSET -2.48547 -0.328903 0.83742
                  }
                }
              }
              JOINT rRing1
              {
                OFFSET -8.82822 0.546677 1.51678
                CHANNELS 3 Zrotation Xrotation Yrotation
                JOINT rRing2
                {
                  OFFSET -2.60934 -0.819778 -0.0198488
                  CHANNELS 3 Zrotation Xrotation Yrotation
                  End Site
                  {
                    OFFSET -2.33842 -0.294052 0.168128
                  }
                }
              }
              JOINT rPinky1
              {
                OFFSET -8.27202 -0.0477905 -0.4584
                CHANNELS 3 Zrotation Xrotation Yrotation
                JOINT rPinky2
                {
                  OFFSET -1.82734 -0.647385 -0.700984
                  CHANNELS 3 Zrotation Xrotation Yrotation
                  End Site
                  {
                    OFFSET -1.69225 -0.51767 -0.607171
                  }
                }
              }
            }
          }
        }
      }
      JOINT lCollar
      {
        OFFSET 2.68224 19.2634 -4.8768
        CHANNELS 3 Zrotation Xrotation Yrotation
        JOINT lShldr
        {
          OFFSET 8.77824 -1.95073 1.46304
          CHANNELS 3 Zrotation Xrotation Yrotation
          JOINT lForeArm
          {
            OFFSET 28.1742 -1.7115 0.48768
            CHANNELS 3 Zrotation Xrotation Yrotation
            JOINT lHand
            {
              OFFSET 22.5879 0.773209 7.07136
              CHANNELS 3 Zrotation Xrotation Yrotation
              JOINT lThumb1
              {
                OFFSET 1.2192 -0.487915 3.41376
                CHANNELS 3 Zrotation Xrotation Yrotation
                JOINT lThumb2
                {
                  OFFSET 3.37035 -0.52449 3.41376
                  CHANNELS 3 Zrotation Xrotation Yrotation
                  End Site
                  {
                    OFFSET 1.78271 -1.18214 1.43049
                  }
                }
              }
              JOINT lIndex1
              {
                OFFSET 7.75947 0.938293 5.60832
                CHANNELS 3 Zrotation Xrotation Yrotation
                JOINT lIndex2
                {
                  OFFSET 2.54057 -0.884171 1.56538
                  CHANNELS 3 Zrotation Xrotation Yrotation
                  End Site
                  {
                    OFFSET 1.62519 -0.234802 1.16502
                  }
                }
              }
              JOINT lMid1
              {
                OFFSET 8.24714 1.18213 3.41376
                CHANNELS 3 Zrotation Xrotation Yrotation
                JOINT lMid2
                {
                  OFFSET 3.10165 -0.590103 1.0647
                  CHANNELS 3 Zrotation Xrotation Yrotation
                  End Site
                  {
                    OFFSET 2.48547 -0.328903 0.83742
                  }
                }
              }
              JOINT lRing1
              {
                OFFSET 8.82822 0.546677 1.51678
                CHANNELS 3 Zrotation Xrotation Yrotation
                JOINT lRing2
                {
                  OFFSET 2.60934 -0.819778 -0.0198488
                  CHANNELS 3 Zrotation Xrotation Yrotation
                  End Site
                  {
                    OFFSET 2.33842 -0.294052 0.168128
                  }
                }
              }
              JOINT lPinky1
              {
                OFFSET 8.27202 -0.0477905 -0.4584
                CHANNELS 3 Zrotation Xrotation Yrotation
                JOINT lPinky2
                {
                  OFFSET 1.82734 -0.647385 -0.700984
                  CHANNELS 3 Zrotation Xrotation Yrotation
                  End Site
                  {
                    OFFSET 1.69225 -0.51767 -0.607171
                  }
                }
              }
            }
          }
        }
      }
    }
  }
  JOINT rButtock
  {
    OFFSET -8.77824 4.35084 1.2192
    CHANNELS 3 Zrotation Xrotation Yrotation
    JOINT rThigh
    {
      OFFSET 0 -1.70687 -2.19456
      CHANNELS 3 Zrotation Xrotation Yrotation
      JOINT rShin
      {
        OFFSET 0 -36.8199 0.73152
        CHANNELS 3 Zrotation Xrotation Yrotation
        JOINT rFoot
        {
          OFFSET 0.73152 -45.1104 -5.12064
          CHANNELS 3 Zrotation Xrotation Yrotation
          End Site
          {
            OFFSET -1.1221 -3.69964 12.103
          }
        }
      }
    }
  }
  JOINT lButtock
  {
    OFFSET 8.77824 4.35084 1.2192
    CHANNELS 3 Zrotation Xrotation Yrotation
    JOINT lThigh
    {
      OFFSET 0 -1.70687 -2.19456
      CHANNELS 3 Zrotation Xrotation Yrotation
      JOINT lShin
      {
        OFFSET 0 -36.8199 0.73152
        CHANNELS 3 Zrotation Xrotation Yrotation
        JOINT lFoot
        {
          OFFSET -0.73152 -45.1104 -5.12064
          CHANNELS 3 Zrotation Xrotation Yrotation
          End Site
          {
            OFFSET 1.1221 -3.69964 12.103
          }
        }
      }
    }
  }
}
MOTION
Frames:	4
Frame Time:	0.03333
-12.2378 55.6044 5.316580000000001 -7.296199321746826 -55.73320007324219 4.777299880981445 -0.9492830634117126 12.979499816894531 14.690699577331543 -2.008309841156006 -11.73340129852295 3.7955896854400635 -0.28571197390556335 13.008901596069336 9.035840034484863 6.788650035858154 -20.226701736450195 18.976001739501953 -0.0 0.0 -0.0 -0.0 0.0 -0.0 -3.846059484346326e-14 -1.2899700567708255e-13 -4.444589770009888e-13 54.682701110839844 78.5565185546875 14.060101509094238 -26.348400115966797 -45.56620788574219 94.63279724121094 -35.118797302246094 -78.25172424316406 -42.51399612426758 -9.599239181312669e-10 -1.2686800054950709e-08 2.7666597901543355e-09 -1.817910044721316e-09 -1.8490698749928924e-08 4.6279398091542134e-09 -9.599239181312669e-10 -1.2686900419112135e-08 2.766650020191719e-09 7.730909824371338 5.474879741668701 0.4173140823841095 -9.599229189305447e-10 -1.2686800054950709e-08 2.766650020191719e-09 2.9055399894714355 0.9651829600334167 0.10290199518203735 -9.599180339492364e-10 -1.2686900419112135e-08 2.7666597901543355e-09 10.27859878540039 0.73180091381073 0.025912316516041756 -9.599269157334334e-10 -1.2686800054950709e-08 2.7666597901543355e-09 2.221669912338257 -0.733487069606781 -0.208919957280159 -3.8482499115479255e-14 -1.2899398346352675e-13 -4.446660054058249e-13 -63.589500427246094 6.608529090881348 -33.33590316772461 28.36509895324707 -33.682403564453125 -73.17839813232422 0.4093359708786011 17.88869857788086 -2.6000096797943115 -2.7781397182735645e-09 2.704140023013224e-09 4.73431027714355e-09 -4.746499637775514e-09 4.5399199954943015e-09 8.225049974441845e-09 -2.7781599243326127e-09 2.7041600070276672e-09 4.734300063091723e-09 -7.730909824371338 5.474879741668701 -0.4173140823841095 -2.7781397182735645e-09 2.704140023013224e-09 4.734300063091723e-09 -2.9055399894714355 0.9651829600334167 -0.10290199518203735 -2.7781397182735645e-09 2.704140023013224e-09 4.734300063091723e-09 -10.27859878540039 0.73180091381073 -0.025912316516041756 -2.778129948310948e-09 2.704140023013224e-09 4.7342898490398966e-09 -2.221669912338257 -0.733487069606781 0.208919957280159 -2.0321699480147914e-16 0.0 -3.8825099822884138e-19 -26.16699981689453 -31.398595809936523 -32.28560256958008 -4.598810195922852 81.42821502685547 7.022991180419922 -11.604700088500977 -25.883800506591797 -24.075098037719727 2.0321699480147914e-16 0.0 3.8825099822884138e-19 59.719303131103516 -40.898006439208984 59.09180450439453 1.6842701435089111 65.63541412353516 -1.4578700065612793 -0.10773000121116638 7.640661239624023 3.1279897689819336
-12.2285 55.6921 5.558029999999999 -7.617701053619385 -56.029197692871094 5.074699878692627 -0.6344220042228699 12.945301055908203 14.77239990234375 -2.1129698753356934 -11.685900688171387 3.8176393508911133 -0.263668954372406 13.07929801940918 9.07533073425293 6.749690055847168 -20.039400100708008 19.02239990234375 -0.0 0.0 -0.0 -0.0 0.0 -0.0 -7.211379659654432e-14 -2.2377800025334682e-13 -3.8926999644528504e-13 53.920196533203125 78.85232543945312 14.42719841003418 -26.330097198486328 -45.6051025390625 94.71399688720703 -34.66630554199219 -78.14978790283203 -42.051700592041016 -9.536410550126107e-10 -9.552489466102543e-09 2.266229870429015e-09 -1.7737298296793824e-09 -1.3578999258356816e-08 3.782069768476504e-09 -9.536389455888639e-10 -9.552519664168813e-09 2.2662198784217935e-09 7.730909824371338 5.474879741668701 0.4173140823841095 -9.536410550126107e-10 -9.552489466102543e-09 2.266229870429015e-09 2.9055399894714355 0.9651829600334167 0.10290199518203735 -9.536369471874195e-10 -9.552509894206196e-09 2.266229870429015e-09 10.27859878540039 0.73180091381073 0.025912316516041756 -9.536449407931968e-10 -9.55250012424358e-09 2.266229870429015e-09 2.221669912338257 -0.733487069606781 -0.208919957280159 -7.207429775614796e-14 -2.2377598092680057e-13 -3.893989893987565e-13 -63.79609680175781 6.416329860687256 -33.342201232910156 28.35919761657715 -33.60179901123047 -73.04879760742188 0.4228280484676361 18.172300338745117 -2.6440799236297607 -1.7442199906625433e-09 1.5246799378587639e-09 3.200589793195263e-09 -2.978290059019173e-09 2.5504898193418057e-09 5.557410087675407e-09 -1.7442399746769865e-09 1.5246999218732071e-09 3.200589793195263e-09 -7.730909824371338 5.474879741668701 -0.4173140823841095 -1.7442199906625433e-09 1.5246799378587639e-09 3.200589793195263e-09 -2.9055399894714355 0.9651829600334167 -0.10290199518203735 -1.7442199906625433e-09 1.5246799378587639e-09 3.200589793195263e-09 -10.27859878540039 0.73180091381073 -0.025912316516041756 -1.7442199906625433e-09 1.5246799378587639e-09 3.2005800232326465e-09 -2.221669912338257 -0.733487069606781 0.208919957280159 -2.0321699480147914e-16 0.0 -3.8825099822884138e-19 -26.20330047607422 -31.14180564880371 -32.24489974975586 -4.373779773712158 81.05113220214844 6.781839370727539 -11.406700134277344 -25.678203582763672 -23.873098373413086 2.0321699480147914e-16 0.0 3.8825099822884138e-19 59.93949890136719 -40.52519607543945 59.432796478271484 1.698830246925354 65.78890228271484 -1.480910062789917 -0.09052639454603195 7.415460109710693 3.2510697841644287
-12.2381 55.7676 5.75602 -8.101299285888672 -56.2537956237793 5.465700626373291 -0.17409896850585938 12.955501556396484 14.862796783447266 -2.263589859008789 -11.644599914550781 3.841630458831787 -0.26371198892593384 13.143298149108887 9.085030555725098 6.733239650726318 -19.93239974975586 19.024099349975586 -0.0 0.0 -0.0 -0.0 0.0 -0.0 -8.176320270792889e-14 -2.564559892573315e-13 6.811520206380373e-13 53.124595642089844 79.19133758544922 14.83220386505127 -26.30729866027832 -45.653297424316406 94.81490325927734 -34.712703704833984 -78.16030883789062 -42.09920120239258 -9.951209994918386e-11 1.7247698380629117e-08 -2.056079750900608e-09 -4.095219649502546e-11 2.7720998829749988e-08 -3.4800902160014857e-09 -9.950568841121665e-11 1.7247698380629117e-08 -2.056079750900608e-09 7.730909824371338 5.474879741668701 0.4173140823841095 -9.950849172435383e-11 1.7247698380629117e-08 -2.056079750900608e-09 2.9055399894714355 0.9651829600334167 0.10290199518203735 -9.95094978639699e-11 1.7247698380629117e-08 -2.056079750900608e-09 10.27859878540039 0.73180091381073 0.025912316516041756 -9.951509755135035e-11 1.7247698380629117e-08 -2.056069980937991e-09 2.221669912338257 -0.733487069606781 -0.208919957280159 -8.171539616838586e-14 -2.5645498637032194e-13 6.810159532653903e-13 -64.13420104980469 6.231350421905518 -33.33899688720703 28.356197357177734 -33.56550216674805 -72.99139404296875 0.4449339509010315 18.620603561401367 -2.714130163192749 2.3445299035529388e-09 -1.6695600457694582e-09 -5.000249547748581e-09 3.989419461447596e-09 -2.7411000136368102e-09 -8.67543992200126e-09 2.3445299035529388e-09 -1.6695500537622365e-09 -5.000239333696754e-09 -7.730909824371338 5.474879741668701 -0.4173140823841095 2.3445398955601604e-09 -1.6695600457694582e-09 -5.000249547748581e-09 -2.9055399894714355 0.9651829600334167 -0.10290199518203735 2.3445299035529388e-09 -1.6695600457694582e-09 -5.000249547748581e-09 -10.27859878540039 0.73180091381073 -0.025912316516041756 2.3445398955601604e-09 -1.6695600457694582e-09 -5.000249547748581e-09 -2.221669912338257 -0.733487069606781 0.208919957280159 -2.0321699480147914e-16 0.0 -3.8825099822884138e-19 -26.01759910583496 -30.87040138244629 -32.1171989440918 -4.1670098304748535 80.67900085449219 6.562889575958252 -11.255300521850586 -25.45170021057129 -23.762699127197266 2.0321699480147914e-16 0.0 3.8825099822884138e-19 60.28939437866211 -40.141700744628906 59.7360954284668 1.7131597995758057 65.93370056152344 -1.5016100406646729 -0.07431429624557495 7.268270492553711 3.3593502044677734
-12.2689 55.8246 5.912629999999999 -8.64949893951416 -56.388397216796875 5.901399612426758 0.255746990442276 12.967400550842285 14.887699127197266 -2.3842103481292725 -11.64220142364502 3.848639965057373 -0.2788810133934021 13.210400581359863 9.080568313598633 6.75592041015625 -19.93810272216797 19.01700210571289 -0.0 0.0 -0.0 -0.0 0.0 -0.0 -1.049149916249048e-14 -1.7926999674230254e-13 1.0852399708050076e-12 52.1205940246582 79.485107421875 15.478901863098145 -26.296300888061523 -45.676204681396484 94.86329650878906 -35.310401916503906 -78.29401397705078 -42.70979309082031 1.6071900754699442e-11 2.8320897627054364e-08 -3.5558600508522886e-09 2.494670026109702e-10 4.5211802301992066e-08 -6.01239991127045e-09 1.6080399165008252e-11 2.8320799927428197e-08 -3.5558600508522886e-09 7.730909824371338 5.474879741668701 0.4173140823841095 1.607630001343452e-11 2.8320799927428197e-08 -3.555850058845067e-09 2.9055399894714355 0.9651829600334167 0.10290199518203735 1.6074698863666192e-11 2.8320799927428197e-08 -3.5558600508522886e-09 10.27859878540039 0.73180091381073 0.025912316516041756 1.6066599439756857e-11 2.8320799927428197e-08 -3.555850058845067e-09 2.221669912338257 -0.733487069606781 -0.208919957280159 -1.0469399225863669e-14 -1.79268993855293e-13 1.0850799425643487e-12 -64.4885025024414 6.056101322174072 -33.282100677490234 28.35650062561035 -33.57960510253906 -73.018798828125 0.45904502272605896 18.896800994873047 -2.757539749145508 3.512160118290808e-09 -2.413989674820982e-09 -7.283149638936948e-09 5.980829609342209e-09 -3.966340145211689e-09 -1.2637999979858705e-08 3.512160118290808e-09 -2.413989674820982e-09 -7.283139868974331e-09 -7.730909824371338 5.474879741668701 -0.4173140823841095 3.512160118290808e-09 -2.413989674820982e-09 -7.283149638936948e-09 -2.9055399894714355 0.9651829600334167 -0.10290199518203735 3.512160118290808e-09 -2.413989674820982e-09 -7.283149638936948e-09 -10.27859878540039 0.73180091381073 -0.025912316516041756 3.5121698882534247e-09 -2.413989674820982e-09 -7.283149638936948e-09 -2.221669912338257 -0.733487069606781 0.208919957280159 -2.0321699480147914e-16 0.0 -3.8825099822884138e-19 -25.7522029876709 -30.658594131469727 -31.95220184326172 -4.000100135803223 80.36138153076172 6.39064884185791 -11.170099258422852 -25.225900650024414 -23.768203735351562 2.0321699480147914e-16 0.0 3.8825099822884138e-19 60.64540100097656 -39.877498626708984 59.96269989013672 1.725730061531067 66.05680847167969 -1.518800139427185 -0.06501729786396027 7.166471004486084 3.523829698562622
